<?xml version="1.0" encoding="UTF-8" standalone="no"?>
<svg
   xmlns:dc="http://purl.org/dc/elements/1.1/"
   xmlns:cc="http://creativecommons.org/ns#"
   xmlns:rdf="http://www.w3.org/1999/02/22-rdf-syntax-ns#"
   xmlns:svg="http://www.w3.org/2000/svg"
   xmlns="http://www.w3.org/2000/svg"
   xmlns:sodipodi="http://sodipodi.sourceforge.net/DTD/sodipodi-0.dtd"
   xmlns:inkscape="http://www.inkscape.org/namespaces/inkscape"
   width="900px"
   height="900px"
   viewBox="0 0 900 900"
   version="1.1"
   id="SVGRoot"
   sodipodi:docname="board.svg"
   inkscape:version="1.0.1 (c497b03c, 2020-09-10)">
  <defs
     id="defs35" />
  <sodipodi:namedview
     id="base"
     pagecolor="#ffffff"
     bordercolor="#666666"
     borderopacity="1.0"
     inkscape:pageopacity="0.0"
     inkscape:pageshadow="2"
     inkscape:zoom="0.35"
     inkscape:cx="400"
     inkscape:cy="560"
     inkscape:document-units="px"
     inkscape:current-layer="layer1"
     inkscape:document-rotation="0"
     showgrid="false"
     inkscape:window-width="1252"
     inkscape:window-height="943"
     inkscape:window-x="0"
     inkscape:window-y="23"
     inkscape:window-maximized="0" />
  <metadata
     id="metadata38">
    <rdf:RDF>
      <cc:Work
         rdf:about="">
        <dc:format>image/svg+xml</dc:format>
        <dc:type
           rdf:resource="http://purl.org/dc/dcmitype/StillImage" />
        <dc:title></dc:title>
      </cc:Work>
    </rdf:RDF>
  </metadata>
  <g
     inkscape:label="Layer 1"
     inkscape:groupmode="layer"
     id="layer1">
    <path
       style="fill:#000000;fill-opacity:1;fill-rule:nonzero;stroke:none"
       id="path48"
       d="m 243.96043,77.393223 c 0.23033,8.686741 0.27439,17.379204 0.34949,26.068917 -0.50779,13.89458 1.2398,27.66328 2.86731,41.42309 2.44085,20.01058 2.35008,40.19122 3.4497,60.28784 1.14948,20.19296 1.97949,40.38888 3.34203,60.56847 1.33422,21.38242 3.19332,42.7171 4.25358,64.11861 1.9295,32.17336 3.67207,64.32649 6.52294,96.43632 3.39849,40.1255 6.06035,80.31888 7.75818,120.55319 1.73395,39.65015 2.67541,79.32887 4.16324,118.98719 1.20902,34.29766 2.42975,68.5916 3.72086,102.8864 0.30988,15.55331 0.71382,31.03976 2.32511,46.51303 0.66656,5.79148 1.0593,11.60609 1.21283,17.43211 0.0674,2.56264 0.0513,5.12914 -0.0926,7.689 0,0 38.0901,-19.37769 38.0901,-19.37769 v 0 c -0.11384,-2.57873 -0.18734,-5.15904 -0.27311,-7.7388 -0.34864,-5.83969 -1.12422,-11.64271 -1.89946,-17.43838 -2.06285,-15.06793 -2.96506,-30.222 -3.86097,-45.40043 -2.25328,-34.06072 -3.65994,-68.14931 -4.81627,-102.26435 -1.58502,-39.66696 -2.71873,-79.35398 -4.13742,-119.02751 -1.92177,-40.28294 -5.07051,-80.48029 -7.77644,-120.71581 -2.59446,-32.30562 -3.86511,-64.66244 -4.98987,-97.04753 -0.80529,-21.45234 -2.94049,-42.78962 -4.22613,-64.21172 -1.09676,-20.20197 -1.87672,-40.41798 -3.18951,-60.60802 -1.00779,-20.24091 -1.27531,-40.52508 -3.14787,-60.71796 -1.44867,-13.70853 -2.76687,-27.441234 -2.20179,-41.247616 0.0755,-8.808446 0.12091,-17.619468 0.34949,-26.425063 0,0 -37.79343,19.256712 -37.79343,19.256712 z" />
    <path
       style="fill:#000000;fill-opacity:1;fill-rule:nonzero;stroke:none"
       id="path50"
       d="m 581.20143,86.939936 c 0.7294,17.773174 0.65837,35.574704 0.7997,53.361124 0.63568,30.30365 0.15028,60.59373 -1.03476,90.87604 -1.84066,41.10167 -2.62443,82.23507 -3.6933,123.36058 -1.7304,38.19421 -4.12128,76.35486 -5.50291,114.56424 -0.89874,29.89004 -0.90668,59.79791 -0.87057,89.69859 0.40301,29.12174 -0.23556,58.21172 -1.51373,87.30192 -1.30521,24.92834 -2.82629,49.82022 -3.43758,74.78129 -0.60185,19.74365 -1.0244,39.49272 -1.62953,59.23615 -0.64295,7.74377 -0.0742,15.31584 1.1715,22.94508 0.471,4.96096 1.38281,9.74327 2.81475,14.51195 0.51401,1.40232 0.93394,2.79792 1.17422,4.26939 0,0 37.57989,-20.17071 37.57989,-20.17071 v 0 c -0.40386,-1.5472 -0.92106,-3.03959 -1.53804,-4.51555 -1.49806,-4.51731 -1.96367,-9.17772 -2.73849,-13.85661 -1.17489,-7.3216 -1.5813,-14.60798 -1.4133,-22.03752 -0.40847,-19.45321 -0.33191,-38.91851 0.15814,-58.3694 0.9648,-24.96469 2.85218,-49.87719 3.61177,-74.84792 0.83528,-29.06856 1.36868,-58.12702 1.02462,-87.21029 0.11381,-29.84884 0.17004,-59.69982 0.81253,-89.54329 0.88273,-38.03857 2.42409,-76.04804 4.47017,-114.04227 1.36935,-41.20323 1.62063,-82.45201 4.31587,-123.60667 1.57634,-30.54444 2.31251,-61.09999 2.23649,-91.68677 0.14234,-18.05822 0.0785,-36.130442 0.7997,-54.176054 0,0 -37.59714,19.1567 -37.59714,19.1567 z" />
    <path
       style="fill:#000000;fill-opacity:1;fill-rule:nonzero;stroke:none"
       id="path52"
       d="m 54.207088,332.42275 c 15.658556,-0.32446 31.32341,-0.44301 46.985392,-0.47273 19.4314,-0.0654 38.86244,0.0824 58.29384,0.066 20.39198,-0.0597 40.78384,-0.10271 61.17588,-0.0682 20.63963,-0.3491 41.247,0.81293 61.86082,1.61754 25.50001,0.96825 51.02151,0.91749 76.53511,0.88607 39.06225,-0.13221 78.12447,-0.26535 117.18678,-0.37561 46.59353,-0.24167 93.18094,0.17628 139.75122,-1.53245 36.11096,-1.72205 72.24264,-2.83182 108.39173,-3.22099 14.08631,-0.15806 28.17281,-0.0507 42.25779,0.1473 4.16344,0.0645 8.32715,0.10585 12.49065,0.16246 2.72278,0.044 5.44614,0.001 8.16926,0.0161 2.63113,-0.007 5.26222,-0.0147 7.89305,0.0328 0.094,0.0122 0.18798,0.0244 0.28196,0.0366 0,0 34.61414,-25.14926 34.61414,-25.14926 v 0 c -0.1274,0.0122 -0.25481,0.0244 -0.38222,0.0366 -2.66013,0.046 -5.32048,0.0417 -7.9809,0.0326 -2.72352,0.0131 -5.44693,-0.0292 -8.17027,-0.002 -4.29664,0.0328 -8.59347,0.038 -12.88989,0.10527 -14.68321,0.23802 -29.36303,0.65863 -44.04262,1.05362 -36.58331,1.12663 -73.16338,2.38995 -109.72434,4.10805 -46.58646,1.92021 -93.19673,2.41856 -139.82032,1.76639 -38.66021,-0.099 -77.32097,-0.18356 -115.98019,-0.48212 -25.23768,-0.2211 -50.48008,-0.42971 -75.70529,-1.31037 -20.61086,-0.81638 -41.20903,-2.28987 -61.84689,-1.82451 -20.32946,0.0342 -40.65874,-0.008 -60.98813,-0.0682 -19.49198,-0.0165 -38.98361,0.13127 -58.4756,0.066 -15.22814,-0.029 -30.45963,-0.1406 -45.684065,-0.47273 0,0 -34.196897,24.8455 -34.196897,24.8455 z" />
    <path
       style="fill:#000000;fill-opacity:1;fill-rule:nonzero;stroke:none"
       id="path54"
       d="m 93.464154,566.75163 c 15.653456,-0.42192 31.316356,-0.46537 46.974786,-0.54352 29.122,-0.37832 58.24704,-0.23311 87.37053,-0.28991 31.87372,-0.05 63.74751,-0.0708 95.62126,-0.0362 30.22663,0.55601 60.41879,-0.29357 90.62412,-1.2574 28.00099,-0.82497 56.00873,-0.87048 83.99787,-2.05693 31.19317,-1.97722 62.33229,-4.62599 93.54871,-6.23009 27.07059,-0.92685 54.13597,-1.64925 81.19772,-2.83364 15.9745,-0.69952 31.96151,-1.08107 47.95063,-1.17079 7.53797,-0.017 15.07731,-0.0141 22.61517,0.0486 4.75897,0.041 9.51829,0.0405 14.27719,0.0852 2.45084,-8e-4 4.90238,0.086 7.3531,0.0688 2.47904,0.008 4.95783,-0.0402 7.4369,-0.036 2.70041,0.0136 5.40111,0.0213 8.10157,0.005 2.81949,-10e-4 5.63908,0.0112 8.45856,-0.003 2.2977,0.005 4.59564,0.0429 6.89329,0.0251 0.21546,0.009 0.43091,0.017 0.64637,0.0255 5.6e-4,0.0132 10e-4,0.0263 0.002,0.0395 0,0 34.66242,-25.18372 34.66242,-25.18372 v 0 c -0.0368,0.0132 -0.0736,0.0263 -0.11041,0.0395 -0.23889,0.009 -0.47777,0.017 -0.71666,0.0255 -2.32069,-0.0184 -4.64171,0.0207 -6.96246,0.0251 -2.81637,-0.0147 -5.63285,-0.002 -8.44924,-0.003 -2.70543,-0.0162 -5.41112,-0.008 -8.11652,0.005 -2.44602,0.004 -4.89176,-0.0437 -7.33776,-0.0357 -2.50986,-0.0181 -5.02057,0.0691 -7.53061,0.0639 -4.81966,0.037 -9.6397,0.0238 -14.45945,0.0492 -7.70004,0.0453 -15.40003,0.0485 -23.09902,0.22145 -16.36826,0.38407 -32.72877,0.98041 -49.08003,1.8297 -27.31948,1.40344 -54.63816,2.52817 -81.98061,3.38842 -31.0097,1.60916 -61.95767,4.05734 -92.95743,5.83394 -28.16273,1.28221 -56.33923,1.73068 -84.52012,2.50789 -30.17107,0.84907 -60.3355,1.66316 -90.52316,1.33033 -31.84053,0.0345 -63.68109,0.014 -95.52158,-0.0362 -28.85747,-0.0566 -57.71656,0.0913 -86.57248,-0.28992 -15.1596,-0.0767 -30.32447,-0.11111 -45.47862,-0.54351 0,0 -34.315716,24.93183 -34.315716,24.93183 z" />
  </g>
</svg>
