<?xml version="1.0" encoding="UTF-8" standalone="no"?>
<svg
   xmlns:dc="http://purl.org/dc/elements/1.1/"
   xmlns:cc="http://creativecommons.org/ns#"
   xmlns:rdf="http://www.w3.org/1999/02/22-rdf-syntax-ns#"
   xmlns:svg="http://www.w3.org/2000/svg"
   xmlns="http://www.w3.org/2000/svg"
   xmlns:sodipodi="http://sodipodi.sourceforge.net/DTD/sodipodi-0.dtd"
   xmlns:inkscape="http://www.inkscape.org/namespaces/inkscape"
   width="300px"
   height="300px"
   viewBox="0 0 300 300"
   version="1.1"
   id="SVGRoot"
   sodipodi:docname="o.svg"
   inkscape:version="1.0.1 (c497b03c, 2020-09-10)">
  <defs
     id="defs31" />
  <sodipodi:namedview
     id="base"
     pagecolor="#ffffff"
     bordercolor="#666666"
     borderopacity="1.0"
     inkscape:pageopacity="0.0"
     inkscape:pageshadow="2"
     inkscape:zoom="0.35"
     inkscape:cx="400"
     inkscape:cy="560"
     inkscape:document-units="px"
     inkscape:current-layer="layer1"
     inkscape:document-rotation="0"
     showgrid="false"
     inkscape:window-width="1252"
     inkscape:window-height="943"
     inkscape:window-x="198"
     inkscape:window-y="70"
     inkscape:window-maximized="0" />
  <metadata
     id="metadata34">
    <rdf:RDF>
      <cc:Work
         rdf:about="">
        <dc:format>image/svg+xml</dc:format>
        <dc:type
           rdf:resource="http://purl.org/dc/dcmitype/StillImage" />
        <dc:title></dc:title>
      </cc:Work>
    </rdf:RDF>
  </metadata>
  <g
     inkscape:label="Layer 1"
     inkscape:groupmode="layer"
     id="layer1">
    <path
       style="fill:#000000;fill-opacity:1;fill-rule:nonzero;stroke:none"
       id="path94"
       d="M 258.3467,53.129949 C 243.72592,47.694191 228.99309,42.577839 214.22237,37.538397 190.50806,29.375817 165.80123,25.755189 140.80262,26.095265 127.65285,26.809881 114.32748,29.129624 102.91522,36.126315 59.061955,63.012117 70.667726,50.708961 53.34607,71.759951 37.114842,94.181869 31.427016,121.17111 26.32836,147.81992 c -3.473054,23.683 -6.837645,52.89528 4.763462,75.09248 2.074008,3.96835 5.107644,7.35589 7.661466,11.03383 3.170007,3.19495 6.049115,6.70756 9.51002,9.58485 21.337457,17.73932 50.713419,24.34211 77.167762,29.6701 27.55233,4.75424 56.17678,5.89115 83.59649,-0.49705 4.24223,-0.98835 8.36378,-2.43735 12.54566,-3.65602 22.43902,-10.76713 27.61588,-12.68074 55.71511,-34.03777 4.01383,-3.05074 6.33475,-7.86601 9.09381,-12.08567 8.22973,-12.5864 13.35433,-26.08676 17.97663,-40.26671 0.65085,-4.26126 1.75336,-8.4777 1.95255,-12.78377 0.74913,-16.1945 -5.30185,-32.93177 -13.38114,-46.70523 -1.89772,-3.2352 -4.18554,-6.22517 -6.27831,-9.33775 -12.64545,-17.035702 -27.60948,-26.66906 -46.72594,-34.9862 -11.25802,-4.373581 -23.148,-6.865645 -35.11861,-8.252591 -4.37672,-0.347252 -8.77049,-0.374889 -13.15837,-0.414476 0,0 -34.32807,25.052861 -34.32807,25.052861 v 0 c 4.401,-0.22201 8.80901,-0.308349 13.21465,-0.165187 12.01399,0.58824 23.97572,2.494526 35.35332,6.508133 17.97596,7.18822 34.03601,17.00838 45.84966,32.76554 2.0443,2.95225 4.27679,5.7827 6.1329,8.85676 7.85317,13.00623 13.39026,28.92827 12.38382,44.32676 -0.26798,4.10019 -1.38849,8.09972 -2.08273,12.14958 -4.56372,13.79843 -9.62578,26.89626 -18.22048,38.8204 -2.93268,4.06876 -14.74105,11.46525 -9.72556,11.48097 8.82804,0.0277 15.74083,-8.03591 23.88763,-11.43659 3.82577,-1.59697 -7.25892,4.00692 -10.88838,6.01038 -4.197,1.40969 -8.31783,3.0706 -12.591,4.22905 -27.08432,7.34251 -55.80748,6.58152 -83.27401,2.17015 -25.73752,-5.04614 -54.0651,-11.29932 -74.967097,-28.33434 -3.308999,-2.69682 -6.0713,-6.00237 -9.10695,-9.00356 -2.387447,-3.39292 -5.202604,-6.52209 -7.162342,-10.17875 -11.868259,-22.14495 -7.904762,-49.24927 -4.299858,-72.83009 5.404745,-26.35123 11.882464,-52.986989 28.822971,-74.595061 14.762766,-16.046932 9.215109,-8.143181 -19.51936,5.694293 -2.867536,1.380901 5.403875,-3.389453 8.273144,-4.766749 6.129159,-2.942095 11.774424,-4.540994 18.456958,-5.717605 3.412864,-0.600912 6.878714,-0.847537 10.318074,-1.271306 25.40265,-1.119739 48.35268,1.794684 72.43996,10.338027 14.39744,5.068719 28.87058,10.031384 42.65023,16.64996 0,0 35.08027,-23.80162 35.08027,-23.80162 z" />
  </g>
</svg>
