<?xml version="1.0" encoding="UTF-8" standalone="no"?>
<svg
   xmlns:dc="http://purl.org/dc/elements/1.1/"
   xmlns:cc="http://creativecommons.org/ns#"
   xmlns:rdf="http://www.w3.org/1999/02/22-rdf-syntax-ns#"
   xmlns:svg="http://www.w3.org/2000/svg"
   xmlns="http://www.w3.org/2000/svg"
   xmlns:sodipodi="http://sodipodi.sourceforge.net/DTD/sodipodi-0.dtd"
   xmlns:inkscape="http://www.inkscape.org/namespaces/inkscape"
   width="900px"
   height="900px"
   viewBox="0 0 900 900"
   version="1.1"
   id="SVGRoot"
   sodipodi:docname="win4.svg"
   inkscape:version="1.0.1 (c497b03c, 2020-09-10)">
  <defs
     id="defs10" />
  <sodipodi:namedview
     id="base"
     pagecolor="#ffffff"
     bordercolor="#666666"
     borderopacity="1.0"
     inkscape:pageopacity="0.0"
     inkscape:pageshadow="2"
     inkscape:zoom="0.35"
     inkscape:cx="400"
     inkscape:cy="560"
     inkscape:document-units="px"
     inkscape:current-layer="layer1"
     inkscape:document-rotation="0"
     showgrid="false"
     inkscape:window-width="1252"
     inkscape:window-height="943"
     inkscape:window-x="373"
     inkscape:window-y="42"
     inkscape:window-maximized="0" />
  <metadata
     id="metadata13">
    <rdf:RDF>
      <cc:Work
         rdf:about="">
        <dc:format>image/svg+xml</dc:format>
        <dc:type
           rdf:resource="http://purl.org/dc/dcmitype/StillImage" />
        <dc:title></dc:title>
      </cc:Work>
    </rdf:RDF>
  </metadata>
  <g
     inkscape:label="Layer 1"
     inkscape:groupmode="layer"
     id="layer1">
    <path
       style="fill:#ff0000"
       id="path107"
       d="m 426.81757,51.678937 c 0.39195,10.520418 0.34242,21.052573 0.47493,31.578709 0.52891,12.714436 -0.57669,25.323864 -1.42876,37.985074 -0.89218,11.46353 -1.32679,22.95628 -1.51555,34.45091 0.0716,15.56343 0.24117,31.12657 0.2722,46.69079 -1.17034,24.13164 -1.58494,48.27274 -1.67539,72.42915 0.13174,44.93903 -0.0863,89.87064 1.54723,134.78478 2.37767,41.96486 4.40314,83.94303 5.40645,125.96405 0.27515,27.44761 1.00883,54.86943 2.03775,82.29747 1.14474,35.74522 2.22658,71.49703 3.99636,107.21798 2.0289,31.9201 2.90077,63.88079 2.95086,95.86043 -0.0718,12.46717 -0.0198,6.5655 -0.14514,17.70512 0,0 36.67378,-18.74816 36.67378,-18.74816 v 0 c -0.42063,-10.88989 -0.19272,-5.11854 -0.68756,-17.3139 -1.2996,-31.82005 -2.23532,-63.65977 -4.00574,-95.45638 -1.94844,-35.71581 -3.21215,-71.46726 -3.78403,-107.232 -0.64256,-27.49821 -0.28969,-55.01367 -1.7565,-82.48865 -2.42487,-41.63776 -5.59295,-83.23454 -7.38365,-124.90717 -1.21165,-45.17008 -1.04011,-90.3454 0.29051,-135.51486 0.71742,-24.40112 1.87152,-48.77923 2.97166,-73.16413 0.0251,-15.66879 0.11837,-31.33737 0.49791,-47.00215 0.20281,-11.38663 0.50689,-22.77449 1.42222,-34.1305 1.07533,-12.718739 1.54301,-25.432078 1.15896,-38.200594 0.13284,-10.687497 0.0867,-21.380649 0.47493,-32.062681 0,0 -37.79343,19.256712 -37.79343,19.256712 z" />
  </g>
</svg>
