<?xml version="1.0" encoding="UTF-8" standalone="no"?>
<svg
   xmlns:dc="http://purl.org/dc/elements/1.1/"
   xmlns:cc="http://creativecommons.org/ns#"
   xmlns:rdf="http://www.w3.org/1999/02/22-rdf-syntax-ns#"
   xmlns:svg="http://www.w3.org/2000/svg"
   xmlns="http://www.w3.org/2000/svg"
   xmlns:sodipodi="http://sodipodi.sourceforge.net/DTD/sodipodi-0.dtd"
   xmlns:inkscape="http://www.inkscape.org/namespaces/inkscape"
   width="900px"
   height="900px"
   viewBox="0 0 900 900"
   version="1.1"
   id="SVGRoot"
   sodipodi:docname="win5.svg"
   inkscape:version="1.0.1 (c497b03c, 2020-09-10)">
  <defs
     id="defs10" />
  <sodipodi:namedview
     id="base"
     pagecolor="#ffffff"
     bordercolor="#666666"
     borderopacity="1.0"
     inkscape:pageopacity="0.0"
     inkscape:pageshadow="2"
     inkscape:zoom="0.35"
     inkscape:cx="400"
     inkscape:cy="560"
     inkscape:document-units="px"
     inkscape:current-layer="layer1"
     inkscape:document-rotation="0"
     showgrid="false"
     inkscape:window-width="1252"
     inkscape:window-height="943"
     inkscape:window-x="373"
     inkscape:window-y="42"
     inkscape:window-maximized="0" />
  <metadata
     id="metadata13">
    <rdf:RDF>
      <cc:Work
         rdf:about="">
        <dc:format>image/svg+xml</dc:format>
        <dc:type
           rdf:resource="http://purl.org/dc/dcmitype/StillImage" />
        <dc:title></dc:title>
      </cc:Work>
    </rdf:RDF>
  </metadata>
  <g
     inkscape:label="Layer 1"
     inkscape:groupmode="layer"
     id="layer1">
    <path
       style="fill:#ff0000"
       id="path127"
       d="m 721.10329,83.107508 c 0.61493,13.577187 0.55733,27.183122 0.61136,40.773172 0.0284,17.77606 0.022,35.55191 0.10154,53.32784 1.1357,22.03061 1.98703,44.06781 2.54259,66.12028 1.4506,25.12693 2.50827,50.26708 3.03754,75.42993 0.43187,26.983 0.52374,53.97098 0.60558,80.95703 0.0251,30.7422 0.1479,61.48408 0.20947,92.2262 0.22555,29.67129 -1.08134,59.324 -3.35909,88.8995 -1.52408,17.25712 -2.81686,34.52672 -3.01731,51.85317 -1.15567,18.06908 -1.92867,36.15139 -2.40385,54.25025 -1.03914,17.7192 -2.24635,35.42624 -3.06247,53.15839 -0.56424,10.36926 -0.70008,20.75126 -0.78759,31.13284 -0.0314,7.02957 -0.0233,14.0587 -0.1529,21.08747 -0.008,2.75995 -0.17004,5.52192 -0.14504,8.28171 -0.009,2.53326 0.0466,5.06627 0.0867,7.59928 0.002,3.16405 -0.0178,6.32782 -0.055,9.49156 -0.0279,1.32755 -0.0122,0.70383 -0.0452,1.87119 0,0 38.03212,-19.37832 38.03212,-19.37832 v 0 c -0.033,-1.13635 -0.0174,-0.52798 -0.0452,-1.82515 -0.0374,-3.14508 -0.0571,-6.29021 -0.0547,-9.43563 0.04,-2.56308 0.0963,-5.1262 0.0859,-7.68952 0.0218,-2.70909 -0.14536,-5.42017 -0.16279,-8.12927 -0.15079,-6.96544 -0.1655,-13.93156 -0.17573,-20.89836 -0.0214,-10.23371 0.0432,-20.46835 0.25531,-30.70003 0.53357,-17.67895 1.6046,-35.32665 2.62117,-52.98328 0.53036,-18.16686 1.56648,-36.30203 2.71887,-54.43883 0.53338,-17.09816 1.14612,-34.19372 2.26412,-51.26596 1.68506,-29.54099 2.52508,-59.13533 2.42688,-88.72581 0.075,-30.81894 0.22826,-61.63762 0.23251,-92.45671 0.029,-27.04421 0.0907,-54.08996 -0.4477,-81.13058 -0.56398,-25.21734 -1.46203,-50.41778 -2.70054,-75.61118 -0.48608,-22.08191 -1.58536,-44.14113 -2.13609,-66.2204 0.0793,-17.81042 0.0733,-35.62076 0.10154,-53.43131 0.0546,-13.797944 0.005,-27.610429 0.61136,-41.396184 0,0 -37.79342,19.256712 -37.79342,19.256712 z" />
  </g>
</svg>
