<?xml version="1.0" encoding="UTF-8" standalone="no"?>
<svg
   xmlns:dc="http://purl.org/dc/elements/1.1/"
   xmlns:cc="http://creativecommons.org/ns#"
   xmlns:rdf="http://www.w3.org/1999/02/22-rdf-syntax-ns#"
   xmlns:svg="http://www.w3.org/2000/svg"
   xmlns="http://www.w3.org/2000/svg"
   xmlns:sodipodi="http://sodipodi.sourceforge.net/DTD/sodipodi-0.dtd"
   xmlns:inkscape="http://www.inkscape.org/namespaces/inkscape"
   width="900px"
   height="900px"
   viewBox="0 0 900 900"
   version="1.1"
   id="SVGRoot"
   sodipodi:docname="win6.svg"
   inkscape:version="1.0.1 (c497b03c, 2020-09-10)">
  <defs
     id="defs10" />
  <sodipodi:namedview
     id="base"
     pagecolor="#ffffff"
     bordercolor="#666666"
     borderopacity="1.0"
     inkscape:pageopacity="0.0"
     inkscape:pageshadow="2"
     inkscape:zoom="0.35"
     inkscape:cx="400"
     inkscape:cy="560"
     inkscape:document-units="px"
     inkscape:current-layer="layer1"
     inkscape:document-rotation="0"
     showgrid="false"
     inkscape:window-width="1252"
     inkscape:window-height="943"
     inkscape:window-x="373"
     inkscape:window-y="42"
     inkscape:window-maximized="0" />
  <metadata
     id="metadata13">
    <rdf:RDF>
      <cc:Work
         rdf:about="">
        <dc:format>image/svg+xml</dc:format>
        <dc:type
           rdf:resource="http://purl.org/dc/dcmitype/StillImage" />
        <dc:title></dc:title>
      </cc:Work>
    </rdf:RDF>
  </metadata>
  <g
     inkscape:label="Layer 1"
     inkscape:groupmode="layer"
     id="layer1">
    <path
       style="fill:#ff0000"
       id="path147"
       d="m 58.861126,84.464535 c 13.5859,9.333602 26.572765,19.494105 39.218993,30.054995 11.783811,10.21565 23.707111,20.25496 35.210811,30.78857 13.40671,11.30506 25.42202,24.07222 37.50856,36.73457 8.60463,9.31453 17.37464,18.45221 26.13461,27.6183 7.77032,8.34242 14.24366,17.74744 21.53446,26.50307 8.18321,9.93444 16.68552,19.58404 24.65799,29.69433 6.35635,8.19388 12.56832,16.46372 19.34958,24.31486 8.69547,9.9401 18.45951,18.81777 28.25036,27.64698 15.48186,13.43464 28.71747,29.0495 42.07474,44.51166 14.85168,17.05467 30.61996,33.27884 46.72145,49.14875 11.29654,10.93064 22.8892,21.55031 33.6511,33.01848 11.15457,13.65477 22.45236,27.09777 34.84273,39.64947 27.3299,25.54338 52.8437,52.87456 77.11731,81.30994 21.86628,25.63447 45.60959,49.54534 68.48855,74.25488 20.43241,21.89106 40.82544,43.81749 60.66859,66.24577 16.4069,18.98402 33.70789,37.15566 51.07657,55.25299 18.60115,17.1244 37.65283,33.77875 56.67309,50.44182 6.45429,4.88532 11.31044,11.63126 17.74429,16.50731 2.02117,1.29055 3.4427,3.13686 4.90972,4.98819 2.30501,2.87384 4.82158,5.64942 6.49838,8.95531 1.10931,1.75861 1.87121,3.68931 2.63943,5.6103 0,0 37.00211,-20.72904 37.00211,-20.72904 v 0 c -0.86595,-2.00923 -1.69519,-4.04182 -2.77564,-5.94918 -1.86308,-3.51885 -4.46286,-6.53421 -6.83512,-9.70661 -1.77147,-2.21818 -3.36167,-4.53068 -5.6786,-6.20105 -7.22842,-3.53188 -12.1371,-10.891 -18.93782,-15.08454 -19.70669,-15.70774 -38.58716,-32.49668 -56.90031,-49.79696 -17.47946,-17.9353 -34.60949,-36.20592 -51.1465,-55.0178 -20.0521,-22.36176 -41.04459,-43.83905 -61.45725,-65.86783 -22.97227,-24.57674 -46.16613,-48.95059 -68.57203,-74.04948 -24.74362,-27.97394 -50.20889,-55.25783 -76.32774,-81.95688 -11.62053,-13.13668 -22.47139,-26.88803 -33.75449,-40.31177 -10.80819,-11.59097 -22.59724,-22.12928 -34.18285,-32.9249 -16.2796,-15.5686 -32.36472,-31.38127 -46.97694,-48.5528 -13.25149,-15.66545 -26.21576,-31.65775 -41.52113,-45.41983 -9.46652,-8.89299 -19.14813,-17.5758 -27.53723,-27.53413 -6.77276,-7.79057 -12.91962,-16.05901 -19.3852,-24.09829 -8.11277,-10.03346 -16.69962,-19.65172 -24.84466,-29.6531 -7.2419,-8.91214 -13.55097,-18.5685 -21.47542,-26.90092 -8.79671,-9.19536 -17.91423,-18.08983 -26.68614,-27.31284 C 193.53061,148.12239 181.56222,135.21555 168.34405,123.62456 156.80746,112.97572 144.83003,102.86001 132.73417,92.854627 120.12959,82.322559 107.0072,72.450129 94.494992,61.810242 c 0,0 -35.633866,22.654293 -35.633866,22.654293 z" />
  </g>
</svg>
