<?xml version="1.0" encoding="UTF-8" standalone="no"?>
<svg
   xmlns:dc="http://purl.org/dc/elements/1.1/"
   xmlns:cc="http://creativecommons.org/ns#"
   xmlns:rdf="http://www.w3.org/1999/02/22-rdf-syntax-ns#"
   xmlns:svg="http://www.w3.org/2000/svg"
   xmlns="http://www.w3.org/2000/svg"
   xmlns:sodipodi="http://sodipodi.sourceforge.net/DTD/sodipodi-0.dtd"
   xmlns:inkscape="http://www.inkscape.org/namespaces/inkscape"
   width="900px"
   height="900px"
   viewBox="0 0 900 900"
   version="1.1"
   id="SVGRoot"
   sodipodi:docname="win7.svg"
   inkscape:version="1.0.1 (c497b03c, 2020-09-10)">
  <defs
     id="defs10" />
  <sodipodi:namedview
     id="base"
     pagecolor="#ffffff"
     bordercolor="#666666"
     borderopacity="1.0"
     inkscape:pageopacity="0.0"
     inkscape:pageshadow="2"
     inkscape:zoom="0.35"
     inkscape:cx="400"
     inkscape:cy="560"
     inkscape:document-units="px"
     inkscape:current-layer="layer1"
     inkscape:document-rotation="0"
     showgrid="false"
     inkscape:window-width="1252"
     inkscape:window-height="943"
     inkscape:window-x="373"
     inkscape:window-y="42"
     inkscape:window-maximized="0" />
  <metadata
     id="metadata13">
    <rdf:RDF>
      <cc:Work
         rdf:about="">
        <dc:format>image/svg+xml</dc:format>
        <dc:type
           rdf:resource="http://purl.org/dc/dcmitype/StillImage" />
        <dc:title></dc:title>
      </cc:Work>
    </rdf:RDF>
  </metadata>
  <g
     inkscape:label="Layer 1"
     inkscape:groupmode="layer"
     id="layer1">
    <path
       style="fill:#ff0000"
       id="path167"
       d="m 106.47048,795.1803 c 18.00926,-26.02236 38.77556,-49.98424 59.04176,-74.241 35.06052,-41.3281 71.83273,-81.15855 108.55961,-120.99942 31.26716,-32.45506 58.41449,-68.43616 87.2248,-102.99352 30.79563,-35.2358 60.33804,-71.70381 93.10935,-105.16456 6.11375,-6.24236 12.46718,-12.24538 18.70077,-18.36807 36.66389,-33.56735 73.00749,-67.5206 110.5086,-100.15739 23.62901,-21.21479 48.51862,-40.89947 74.47656,-59.16552 12.47456,-9.01288 25.11892,-17.77716 37.90636,-26.34256 11.30845,-8.18505 22.57189,-16.40732 34.06177,-24.34272 13.01413,-7.99703 25.12387,-17.29516 36.99637,-26.87662 10.35073,-7.94492 19.893,-16.88051 29.80253,-25.35957 8.23513,-7.47293 17.43755,-13.691867 26.71134,-19.771322 13.86768,-9.550538 42.40485,-25.453585 -22.31126,12.140482 12.23576,-7.501237 35.0228,-11.106264 40.94711,-25.635607 3.69684,-14.509348 0.27551,-0.593115 -39.61212,17.363954 -0.0789,0.03551 -1.62505,0.74738 -1.64109,0.816052 -0.10385,0.444757 0.0545,0.911814 0.0818,1.367721 0,0 38.96954,-17.518754 38.96954,-17.518754 v 0 c 1.10689,0.494073 2.49929,-1.711689 1.81617,-1.431907 -12.92789,5.294868 -25.71988,10.915674 -38.57982,16.37351 -0.0725,0.04394 -0.1449,0.08788 -0.21735,0.131814 -0.76066,0.585224 -3.23797,2.059683 -2.40507,1.58285 35.65541,-20.412671 48.07218,-24.772561 33.73684,-19.620555 -16.7966,9.669069 -34.02774,18.640347 -49.92713,29.751882 -9.00741,6.14704 -17.7525,12.65484 -25.85918,19.97157 -9.87654,8.51576 -19.59205,17.23715 -29.89115,25.24678 -11.86779,9.47265 -24.1227,18.40068 -36.94315,26.54955 -11.5306,8.0678 -22.91215,16.33929 -34.4237,24.43276 -12.39225,8.50265 -24.72519,17.08381 -36.81173,26.01808 -25.12021,18.19208 -49.16532,37.77006 -72.11713,58.64486 -37.0522,32.81179 -73.3797,66.44593 -109.69224,100.06776 -6.13584,6.13105 -12.3831,12.15259 -18.40753,18.39315 -32.59612,33.76552 -62.22029,70.30039 -93.26984,105.45561 -29.07262,34.44137 -56.81461,70.02505 -87.61296,102.98554 -36.35247,40.14793 -73.12536,79.9336 -108.35741,121.07723 -21.45184,25.23826 -43.349793,50.16239 -63.3497,76.58474 0,0 38.77828,-16.9668 38.77828,-16.9668 z" />
    <path
       style="fill:#ff0000"
       id="path169"
       d="m 140.42017,823.9808 c 12.98299,-21.35564 27.45108,-41.7087 42.7923,-61.41866 17.34419,-21.55881 37.36761,-40.67452 56.4318,-60.6498 10.43892,-10.82572 18.84013,-23.30054 27.90849,-35.22306 5.90339,-7.76141 14.64455,-18.35619 20.70556,-25.79888 21.99407,-26.71172 43.50544,-53.8066 64.25571,-81.49635 14.37319,-19.65369 29.42547,-38.77861 44.72577,-57.71453 15.17158,-20.05293 31.83412,-38.82068 48.77967,-57.36641 22.19241,-22.30001 42.52245,-46.32688 63.70078,-69.56447 15.8522,-18.11251 33.60033,-34.31662 52.31544,-49.38594 20.19011,-16.09945 39.63535,-33.08856 59.1924,-49.94403 19.11741,-16.17602 38.52607,-31.98561 57.54976,-48.26782 11.98459,-10.12488 23.23072,-21.08191 34.35874,-32.12889 11.76336,-11.67988 23.53248,-23.35424 35.25468,-35.07554 8.073,-8.54827 16.77791,-16.38065 25.6595,-24.06246 7.24296,-5.67778 14.77743,-11.0659 21.11351,-17.77454 5.36274,-4.98577 10.77401,-9.90272 16.40076,-14.58134 -2.74374,0.98234 7.6294,-5.226548 5.62771,-4.065284 -111.97239,64.959864 87.83309,-50.181099 -27.47834,16.428104 1.46476,-0.83242 2.96941,-1.5902 4.46586,-2.36294 0,0 33.44757,-26.63003 33.44757,-26.63003 v 0 c -1.66109,0.720234 -3.27013,1.553586 -4.88553,2.36931 -12.69084,7.295714 -25.59365,14.23452 -38.07253,21.88714 -11.27572,6.91479 23.0379,-13.004947 34.46146,-19.672666 0.76352,-0.445653 -1.69098,0.555792 -2.45909,0.993482 -12.95492,7.382042 -25.86412,14.846064 -38.68813,22.453254 -0.88773,0.5266 -4.66002,3.78561 -5.3496,4.37033 -5.52039,4.8486 -11.12355,9.61196 -16.26878,14.86768 -6.67987,6.21283 -14.03746,11.60316 -21.0329,17.44669 -8.71692,7.66723 -17.0142,15.74721 -25.05554,24.12316 -11.6412,11.66848 -23.22265,23.39704 -35.00488,34.9239 -11.25019,10.87867 -22.54617,21.71694 -34.44605,31.89144 -18.4834,16.17916 -37.48918,31.73777 -56.16634,47.69297 -19.98006,17.14269 -40.04728,34.17968 -60.73776,50.4654 -18.01017,15.02629 -34.78829,31.39411 -50.15678,49.13952 -21.26976,23.61489 -42.48906,47.26963 -64.73028,69.98351 -16.93653,18.62051 -33.48589,37.54255 -48.72263,57.6004 -15.22409,18.81333 -30.25785,37.76381 -44.11256,57.62345 -20.49521,27.67344 -41.91399,54.62162 -63.88546,81.13797 -16.86773,20.41626 -32.52161,41.81907 -50.33164,61.43338 -18.61395,19.73784 -37.63816,39.13028 -54.63527,60.32247 -15.89344,20.60035 -31.07835,41.71091 -45.71714,63.22227 0,0 38.78976,-17.19219 38.78976,-17.19219 z" />
  </g>
</svg>
